<svg width="22" height="26" viewBox="0 0 22 26" fill="none" xmlns="http://www.w3.org/2000/svg">
<path fill-rule="evenodd" clip-rule="evenodd" d="M7.59154 0.884436C8.6002 0.321066 9.7626 0 11 0C12.2374 0 13.3998 0.321066 14.4085 0.884436L15.1464 0.146447C15.3417 -0.0488155 15.6583 -0.0488155 15.8536 0.146447C16.0488 0.341709 16.0488 0.658291 15.8536 0.853553L15.2612 1.44595C16.9266 2.72558 18 4.73743 18 7H4C4 4.73743 5.07345 2.72558 6.73884 1.44595L6.14645 0.853553C5.95118 0.658291 5.95118 0.341709 6.14645 0.146447C6.34171 -0.0488155 6.65829 -0.0488155 6.85355 0.146447L7.59154 0.884436ZM9 4C9 4.55228 8.55229 5 8 5C7.44771 5 7 4.55228 7 4C7 3.44772 7.44771 3 8 3C8.55229 3 9 3.44772 9 4ZM14 5C14.5523 5 15 4.55228 15 4C15 3.44772 14.5523 3 14 3C13.4477 3 13 3.44772 13 4C13 4.55228 13.4477 5 14 5Z" fill="#3D8AFF"/>
<path d="M0 9.5C0 8.67157 0.671573 8 1.5 8C2.32843 8 3 8.67157 3 9.5V15.5C3 16.3284 2.32843 17 1.5 17C0.671573 17 0 16.3284 0 15.5V9.5Z" fill="#3D8AFF"/>
<path d="M7 21V24.5C7 25.3284 7.67157 26 8.5 26C9.32843 26 10 25.3284 10 24.5V21H12V24.5C12 25.3284 12.6716 26 13.5 26C14.3284 26 15 25.3284 15 24.5V21H16C17.1046 21 18 20.1046 18 19V8H4V19C4 20.1046 4.89543 21 6 21H7Z" fill="#3D8AFF"/>
<path d="M19 9.5C19 8.67157 19.6716 8 20.5 8C21.3284 8 22 8.67157 22 9.5V15.5C22 16.3284 21.3284 17 20.5 17C19.6716 17 19 16.3284 19 15.5V9.5Z" fill="#3D8AFF"/>
</svg>
