<svg width="24" height="24" viewBox="0 0 24 24" fill="none" xmlns="http://www.w3.org/2000/svg">
<mask id="mask0_2940_5415" style="mask-type:alpha" maskUnits="userSpaceOnUse" x="0" y="0" width="24" height="24">
<rect width="24" height="24" fill="#D9D9D9"/>
</mask>
<g mask="url(#mask0_2940_5415)">
<path d="M7.37295 12.7497L12.5422 17.9189C12.6909 18.0676 12.7643 18.2416 12.7625 18.4409C12.7605 18.6403 12.682 18.8175 12.527 18.9727C12.3718 19.1175 12.1961 19.1925 12 19.1977C11.8038 19.2029 11.6281 19.1279 11.473 18.9727L5.1327 12.6324C5.03904 12.5388 4.97304 12.44 4.9347 12.3362C4.8962 12.2324 4.87695 12.1202 4.87695 11.9997C4.87695 11.8792 4.8962 11.767 4.9347 11.6632C4.97304 11.5594 5.03904 11.4606 5.1327 11.3669L11.473 5.02669C11.6115 4.88819 11.783 4.81736 11.9875 4.81419C12.192 4.81102 12.3718 4.88186 12.527 5.02669C12.682 5.18186 12.7595 5.36002 12.7595 5.56119C12.7595 5.76252 12.682 5.94077 12.527 6.09594L7.37295 11.2497H18.75C18.9628 11.2497 19.141 11.3215 19.2845 11.4652C19.4281 11.6087 19.5 11.7869 19.5 11.9997C19.5 12.2125 19.4281 12.3907 19.2845 12.5342C19.141 12.6779 18.9628 12.7497 18.75 12.7497H7.37295Z" fill="black"/>
</g>
</svg>
