<svg width="24" height="24" viewBox="0 0 24 24" fill="none" xmlns="http://www.w3.org/2000/svg">
<mask id="mask0_4203_4327" style="mask-type:alpha" maskUnits="userSpaceOnUse" x="0" y="0" width="24" height="24">
<rect width="24" height="24" fill="#D9D9D9"/>
</mask>
<g mask="url(#mask0_4203_4327)">
<path d="M7.37289 12.7501L12.5421 17.9193C12.6908 18.068 12.7642 18.242 12.7624 18.4413C12.7604 18.6406 12.6819 18.8179 12.5269 18.9731C12.3717 19.1179 12.1961 19.1929 11.9999 19.1981C11.8037 19.2032 11.6281 19.1282 11.4729 18.9731L5.13264 12.6328C5.03898 12.5391 4.97298 12.4404 4.93464 12.3366C4.89614 12.2327 4.87689 12.1206 4.87689 12.0001C4.87689 11.8796 4.89614 11.7674 4.93464 11.6636C4.97298 11.5597 5.03898 11.461 5.13264 11.3673L11.4729 5.02705C11.6114 4.88855 11.7829 4.81772 11.9874 4.81455C12.1919 4.81139 12.3717 4.88222 12.5269 5.02705C12.6819 5.18222 12.7594 5.36039 12.7594 5.56155C12.7594 5.76289 12.6819 5.94114 12.5269 6.0963L7.37289 11.2501H18.7499C18.9627 11.2501 19.1409 11.3219 19.2844 11.4656C19.4281 11.6091 19.4999 11.7872 19.4999 12.0001C19.4999 12.2129 19.4281 12.3911 19.2844 12.5346C19.1409 12.6782 18.9627 12.7501 18.7499 12.7501H7.37289Z" fill="white"/>
</g>
</svg>
