<svg width="81" height="81" viewBox="0 0 81 81" fill="none" xmlns="http://www.w3.org/2000/svg">
<mask id="mask0_2385_5006" style="mask-type:alpha" maskUnits="userSpaceOnUse" x="0" y="0" width="81" height="81">
<rect x="0.5" y="0.5" width="80" height="80" fill="#D9D9D9"/>
</mask>
<g mask="url(#mask0_2385_5006)">
<path d="M35.7693 47.6542L28.026 39.91C27.5643 39.4489 26.9841 39.2128 26.2852 39.2017C25.5868 39.1912 24.996 39.4273 24.5127 39.91C24.0299 40.3934 23.7885 40.9789 23.7885 41.6667C23.7885 42.3545 24.0299 42.94 24.5127 43.4234L33.6602 52.5709C34.2629 53.1731 34.966 53.4742 35.7693 53.4742C36.5727 53.4742 37.2757 53.1731 37.8785 52.5709L56.4235 34.0259C56.8846 33.5642 57.1207 32.9839 57.1318 32.285C57.1424 31.5867 56.9063 30.9959 56.4235 30.5125C55.9402 30.0298 55.3546 29.7884 54.6668 29.7884C53.979 29.7884 53.3935 30.0298 52.9102 30.5125L35.7693 47.6542ZM40.506 72.1667C36.126 72.1667 32.0091 71.3356 28.1552 69.6734C24.3013 68.0112 20.949 65.7553 18.0985 62.9059C15.2479 60.0564 12.991 56.7056 11.3277 52.8534C9.66488 49.0012 8.8335 44.8853 8.8335 40.5059C8.8335 36.1259 9.66461 32.0089 11.3268 28.155C12.9891 24.3012 15.2449 20.9489 18.0943 18.0984C20.9438 15.2478 24.2946 12.9909 28.1468 11.3275C31.9991 9.66476 36.1149 8.83337 40.4943 8.83337C44.8743 8.83337 48.9913 9.66448 52.8452 11.3267C56.6991 12.9889 60.0513 15.2448 62.9018 18.0942C65.7524 20.9437 68.0093 24.2945 69.6727 28.1467C71.3354 31.9989 72.1668 36.1148 72.1668 40.4942C72.1668 44.8742 71.3357 48.9912 69.6735 52.845C68.0113 56.6989 65.7554 60.0512 62.906 62.9017C60.0566 65.7523 56.7057 68.0092 52.8535 69.6725C49.0013 71.3353 44.8854 72.1667 40.506 72.1667Z" fill="#3D8AFF"/>
</g>
</svg>
