<svg width="28" height="28" viewBox="0 0 28 28" fill="none" xmlns="http://www.w3.org/2000/svg">
<path d="M28 14C28 21.728 21.735 28 14 28C6.265 28 0 21.728 0 14C0 6.265 6.265 0 14 0C21.735 0 28 6.265 28 14Z" fill="#B1D0FF"/>
<path d="M20.5621 10.4574C20.4857 10.502 18.6671 11.4425 18.6671 13.5279C18.7528 15.9061 20.9621 16.7401 21 16.7401C20.9621 16.7847 20.6665 17.8763 19.7907 19.0205C19.0956 20.0062 18.3242 21 17.1528 21C16.0385 21 15.6385 20.3431 14.3528 20.3431C12.972 20.3431 12.5813 21 11.5242 21C10.3528 21 9.52419 19.953 8.79127 18.9766C7.8391 17.6986 7.02978 15.6931 7.00121 13.7675C6.98195 12.7471 7.19189 11.744 7.72481 10.8921C8.47699 9.70265 9.81985 8.89524 11.2863 8.86862C12.4099 8.83331 13.4099 9.58747 14.0956 9.58747C14.7528 9.58747 15.9814 8.86862 17.3714 8.86862C17.9714 8.86919 19.5714 9.03762 20.5621 10.4574ZM14.0006 8.66488C13.8006 7.73303 14.3528 6.80119 14.8671 6.20677C15.5242 5.48792 16.5621 5 17.4571 5C17.5143 5.93185 17.1522 6.84575 16.505 7.51136C15.9242 8.23021 14.9242 8.77138 14.0006 8.66488Z" fill="#3D8AFF"/>
</svg>
