<svg width="81" height="81" viewBox="0 0 81 81" fill="none" xmlns="http://www.w3.org/2000/svg">
<mask id="mask0_2520_8141" style="mask-type:alpha" maskUnits="userSpaceOnUse" x="0" y="0" width="81" height="81">
<rect x="0.5" y="0.5" width="80" height="80" fill="#D9D9D9"/>
</mask>
<g mask="url(#mask0_2520_8141)">
<path d="M40.4985 56.2691C41.1596 56.2691 41.7035 56.0563 42.1302 55.6308C42.5563 55.2058 42.7693 54.6627 42.7693 54.0016C42.7693 53.3405 42.5566 52.7966 42.131 52.3699C41.706 51.9438 41.1629 51.7308 40.5018 51.7308C39.8407 51.7308 39.2968 51.9433 38.8702 52.3683C38.4441 52.7938 38.231 53.3371 38.231 53.9982C38.231 54.6594 38.4438 55.2033 38.8693 55.6299C39.2943 56.056 39.8374 56.2691 40.4985 56.2691ZM40.7018 44.5124C41.2424 44.5124 41.6902 44.3313 42.0452 43.9691C42.3996 43.6074 42.5768 43.1583 42.5768 42.6216V25.6091C42.5768 25.0724 42.3943 24.623 42.0293 24.2608C41.6643 23.8991 41.2113 23.7183 40.6702 23.7183C40.1296 23.7183 39.6818 23.8991 39.3268 24.2608C38.9724 24.623 38.7952 25.0724 38.7952 25.6091V42.6216C38.7952 43.1583 38.9777 43.6074 39.3427 43.9691C39.7082 44.3313 40.1613 44.5124 40.7018 44.5124ZM40.5277 72.1666C36.1416 72.1666 32.0335 71.3355 28.2035 69.6733C24.3729 68.011 21.0185 65.7413 18.1402 62.8641C15.2618 59.9869 12.991 56.6319 11.3277 52.7991C9.66488 48.9669 8.8335 44.8552 8.8335 40.4641C8.8335 36.0941 9.66461 31.9866 11.3268 28.1416C12.9891 24.2966 15.2588 20.9488 18.136 18.0983C21.0132 15.2477 24.3682 12.9908 28.201 11.3274C32.0332 9.66464 36.1449 8.83325 40.536 8.83325C44.906 8.83325 49.0135 9.66436 52.8585 11.3266C56.7035 12.9888 60.0513 15.2446 62.9018 18.0941C65.7524 20.9435 68.0093 24.2944 69.6727 28.1466C71.3354 31.9988 72.1668 36.1074 72.1668 40.4724C72.1668 44.8585 71.3357 48.9666 69.6735 52.7966C68.0113 56.6271 65.7554 59.9763 62.906 62.8441C60.0566 65.7124 56.7057 67.9832 52.8535 69.6566C49.0013 71.3299 44.8927 72.1666 40.5277 72.1666Z" fill="#FF4646"/>
</g>
</svg>
