<svg width="17" height="13" viewBox="0 0 17 13" fill="none" xmlns="http://www.w3.org/2000/svg">
<path d="M2.25674 12.0831C1.88163 12.0831 1.56456 11.9535 1.30553 11.6943C1.04651 11.4351 0.916992 11.1179 0.916992 10.7425V2.25034C0.916992 1.875 1.04651 1.55887 1.30553 1.30192C1.56456 1.04498 1.88163 0.916504 2.25674 0.916504H14.7439C15.119 0.916504 15.436 1.0461 15.6951 1.3053C15.9541 1.56449 16.0836 1.88175 16.0836 2.25709V10.7493C16.0836 11.1246 15.9541 11.4408 15.6951 11.6977C15.436 11.9547 15.119 12.0831 14.7439 12.0831H2.25674ZM7.73428 8.72419L6.70224 7.43255C6.63467 7.33746 6.54947 7.28992 6.44664 7.28992C6.3438 7.28992 6.2586 7.34014 6.19103 7.44057L5.04741 8.9603C4.95834 9.07425 4.94492 9.19266 5.00716 9.31553C5.0694 9.43839 5.16542 9.49982 5.29522 9.49982H11.7736C11.9076 9.49982 12.004 9.43839 12.0628 9.31553C12.1215 9.19266 12.1103 9.07407 12.0291 8.95975L10.0836 6.36042C10.016 6.26 9.92951 6.2098 9.82401 6.2098C9.71851 6.2098 9.63197 6.26 9.56439 6.36042L7.73428 8.72419Z" fill="#999999"/>
</svg>
